<svg xmlns="http://www.w3.org/2000/svg" viewBox="0 0 382.1 46.85"><title>Mahindra &amp;amp; Mahindra logo</title><path d="M695.69,501.09H667a4.33,4.33,0,0,0-3.51,1.78L658.67,510h28.9a3.5,3.5,0,0,1,3.26,3.51s0,13.64,0,13.64H669.15v-3.91h0a1.4,1.4,0,0,1,1.4-1.4h15.14v-5a1.75,1.75,0,0,0-1.8-1.93h-21a4.67,4.67,0,0,0-4.65,4.68V532a.76.76,0,0,0,.05.2,3.83,3.83,0,0,0,3.82,3.24h40.94V508.51a7.39,7.39,0,0,0-7.36-7.42m-90.26-12.48v38.25h-18a2.16,2.16,0,0,1-2.11-2v-11.3h0a3.49,3.49,0,0,1,3.49-3.5h9.1a4.08,4.08,0,0,0,3.32-1.73l4.19-7.18H580.22a7.39,7.39,0,0,0-7.37,7.41s0,0,0,.07,0,19.21,0,20.71a6,6,0,0,0,6,6.14h39V488.61Zm25.78,12.49a5,5,0,0,0-5.11,5v29.32h12.49V513.57A3.41,3.41,0,0,1,642,510h9.23a4.28,4.28,0,0,0,3.22-1.94l4.85-6.94ZM501.6,512.26v23.16H514V501.49l-9.82,6.16A5.48,5.48,0,0,0,501.6,512.26Zm0-23.68H514v8.65l-12.4,8.29Zm-121,0H320.95v46.81h12.39V499.53h13.25a2.32,2.32,0,0,1,2.27,2.34h0v33.55h12.4V501.87a2.33,2.33,0,0,1,2.32-2.34h9.78a3.42,3.42,0,0,1,3.41,3.43h0v32.46h12.39v-38.2A8.58,8.58,0,0,0,380.6,488.61ZM557.42,501.1l-35.26,0v34.3h12.48V510h14.2a3.5,3.5,0,0,1,3.49,3.5h0v21.92h12.44V508.51A7.39,7.39,0,0,0,557.42,501.1Zm-64,7.4a7.39,7.39,0,0,0-7.36-7.41H469.74c-1.45,0-2.16.74-2.92,1.87L462,510h15.73a3.5,3.5,0,0,1,3.34,3.51s0,21.9,0,21.9h12.4V508.58S493.42,508.53,493.42,508.5Zm-43.87-19.89H462v46.81h-12.4Zm-15.07,12.48H405.81a4.34,4.34,0,0,0-3.51,1.78L397.46,510h28.89a3.5,3.5,0,0,1,3.26,3.51s0,13.64,0,13.64H407.94v-3.91h0a1.4,1.4,0,0,1,1.39-1.4h15.14v-5a1.75,1.75,0,0,0-1.8-1.93h-21a4.66,4.66,0,0,0-4.65,4.68V532a.55.55,0,0,0,0,.2,3.83,3.83,0,0,0,3.82,3.24h40.94V508.51A7.39,7.39,0,0,0,434.48,501.09Z" transform="translate(-320.95 -488.58)" style="fill:#dd1e35"/></svg>